<svg width="16" height="16" viewBox="0 0 16 16" fill="none" xmlns="http://www.w3.org/2000/svg">
<g clip-path="url(#clip0_2440_366)">
<path d="M11.332 1.3335H4.66536C2.82442 1.3335 1.33203 2.82588 1.33203 4.66683V11.3335C1.33203 13.1744 2.82442 14.6668 4.66536 14.6668H11.332C13.173 14.6668 14.6654 13.1744 14.6654 11.3335V4.66683C14.6654 2.82588 13.173 1.3335 11.332 1.3335Z" stroke="#C3C8B4" stroke-width="1.33333" stroke-linecap="round" stroke-linejoin="round"/>
<path d="M10.6639 7.5802C10.7461 8.13503 10.6514 8.70168 10.393 9.19954C10.1347 9.69741 9.72596 10.1011 9.22495 10.3533C8.72394 10.6055 8.15617 10.6933 7.60239 10.6042C7.04862 10.515 6.53704 10.2536 6.14043 9.85698C5.74381 9.46036 5.48236 8.94878 5.39325 8.39501C5.30414 7.84124 5.39191 7.27346 5.64408 6.77245C5.89626 6.27144 6.29999 5.86269 6.79786 5.60436C7.29572 5.34603 7.86237 5.25126 8.4172 5.33353C8.98315 5.41746 9.5071 5.68118 9.91166 6.08574C10.3162 6.4903 10.5799 7.01425 10.6639 7.5802Z" stroke="#C3C8B4" stroke-width="1.33333" stroke-linecap="round" stroke-linejoin="round"/>
<path d="M11.668 4.3335H11.6746" stroke="#C3C8B4" stroke-width="1.33333" stroke-linecap="round" stroke-linejoin="round"/>
</g>
<defs>
<clipPath id="clip0_2440_366">
<rect width="16" height="16" fill="white"/>
</clipPath>
</defs>
</svg>
