<svg width="66" height="23" viewBox="0 0 66 23" fill="none" xmlns="http://www.w3.org/2000/svg">
<path d="M65.9999 22.7571C63.958 23.0474 61.0152 23.1248 59.7539 21.3252L54.1386 13.2947C53.8283 12.8497 53.1276 13.5656 53.1276 13.972L53.1076 22.7765C51.7363 23.1538 48.6133 22.8345 48.6133 21.0156L48.5833 0.107409C49.5942 -0.105446 50.4651 0.0396822 51.416 0.184811C52.4169 0.417016 53.1276 1.22006 53.1176 2.26498L53.0775 11.2339L61.4456 4.79989C62.2363 4.39353 63.4475 4.70314 64.4685 4.75152L57.6019 10.2083L65.9899 22.7668L65.9999 22.7571Z" fill="#173901"/>
<path d="M4.57254 15.2359L4.50125 22.9073C3.53379 22.9073 2.4543 22.985 1.48684 22.6933C0.42772 22.3822 0 21.6044 0 20.5737L0.0203681 0L10.8967 0.0583371C14.5018 0.077783 17.0172 2.80021 17.3023 6.17407C17.9948 10.1896 15.4896 14.3122 11.192 15.0706C9.04325 15.4498 6.96575 15.3136 4.57254 15.2261V15.2359ZM12.1595 4.1128C11.0393 1.44872 7.46475 2.10016 4.53181 2.00293L4.51144 13.2038C6.46674 13.2427 8.09615 13.3399 9.92924 13.1454C12.7603 12.8537 13.4019 7.05886 12.1595 4.1128Z" fill="#173901"/>
<path d="M33.7559 16.1705C34.5877 18.8051 36.9229 20.1709 39.649 20.1515C41.8338 20.1321 43.8182 19.2604 44.7202 17.2263C45.3416 17.7591 45.8026 18.253 46.0632 18.9989C43.1467 22.7377 37.8049 24.084 33.4753 21.7884C29.6067 19.735 27.6523 15.6572 28.6946 11.5697C29.737 7.48218 33.2949 4.67323 37.6646 4.58605C42.4953 4.47951 47.1356 7.17222 46.7247 12.0734L33.4051 12.1315C33.0844 13.5263 33.3349 14.8339 33.7559 16.1705ZM41.934 10.1846C41.9541 8.70262 41.1523 7.82119 40.3505 7.23034C39.3984 6.53295 38.2058 6.36828 37.1033 6.78478C35.5599 7.36595 34.4173 8.63481 33.9463 10.204H41.9441L41.934 10.1846Z" fill="#173901"/>
<path d="M28.411 20.0064C28.3915 20.9163 28.4306 21.5455 28.411 22.2812C25.4322 23.9172 19.2695 22.2812 19.25 18.6705V0.0942019C20.7443 -0.0703616 23.5863 -0.283326 23.5961 1.98184C23.6059 4.92463 23.6254 7.87709 23.6352 10.8199C23.6352 12.3881 23.6352 13.9466 23.6352 15.5148C23.6352 16.9474 23.4594 18.7673 24.2895 19.9386C25.3248 21.3907 27.1316 21.0519 28.4013 20.0064H28.411Z" fill="#173901"/>
</svg>
