<svg width="94" height="38" viewBox="0 0 94 38" fill="none" xmlns="http://www.w3.org/2000/svg">
<path d="M8.43827 32.9183C8.43827 33.841 8.86221 35.3248 9.61034 35.8734V36.9832H0.283597L0.25866 35.8111C1.2063 35.1128 1.46814 33.5667 1.46814 32.3323V6.07274C1.46814 4.67622 1.00679 3.47921 0.0217497 2.58145C-0.015657 2.3196 -0.00318751 1.98294 0.0466881 1.68369L5.6951 1.70862L14.5231 1.65875C16.6054 1.64628 18.588 1.90813 20.5456 2.54404C25.3835 4.10266 28.0269 8.00542 27.9272 13.0678C27.79 20.4619 22.2663 23.6788 15.3834 23.9656C14.2737 24.028 13.1889 24.028 12.0792 23.9656C10.8697 23.9033 9.7475 23.8908 8.41333 23.6913L8.43827 32.9058V32.9183ZM20.0344 17.3197C20.6952 15.7736 20.8324 14.2149 20.77 12.569C20.6204 8.31715 17.9894 4.67622 13.6129 4.27722C12.0418 4.12759 9.95947 4.27722 8.4258 4.61388V21.5591L11.8298 21.609C13.1016 21.6215 14.3361 21.4968 15.558 21.1975C17.6154 20.6863 19.1865 19.2898 20.0344 17.3197Z" fill="#173901"/>
<path d="M88.3882 37.1324C86.8795 37.1574 85.5827 36.5214 84.6226 35.3868L83.3134 33.5912L78.837 27.1323L75.4081 22.8181L74.5103 22.9553V32.7558C74.5103 33.8157 74.8594 35.1873 75.7198 35.8107V36.9703H66.4928L66.418 35.8481C67.6275 35.0252 67.7522 33.1922 67.7522 31.6212V6.87037L67.5776 4.95016C67.5028 4.10227 66.9916 3.40401 66.3182 2.88032C66.2559 2.59353 66.2559 2.19453 66.3182 1.88281C68.9741 1.37158 71.443 0.810479 73.9991 0C74.1861 0.149627 74.423 0.411474 74.5103 0.660852V21.3967C74.7223 21.4216 75.1587 21.4216 75.3083 21.2969L81.5677 16.2221C82.5029 15.4614 84.4231 13.5786 84.2735 12.7183C84.1862 12.1821 84.074 11.6834 84.2361 11.1971H91.5553L91.5927 12.2694C90.6326 12.6185 89.8221 13.0175 88.9992 13.5911L86.655 15.3742L81.7049 19.5637L87.0166 27.3568L91.3558 33.5538C92.0291 34.5264 92.8645 35.2371 93.9992 35.6736L93.9743 36.8207L91.281 37.0701L88.3882 37.1199V37.1324Z" fill="#173901"/>
<path d="M53.8745 32.6562C57.3783 33.7285 61.4057 32.9679 63.6876 30.0751L64.4606 29.1026L65.4207 29.7634L64.7599 31.2347C63.5005 34.0153 61.2062 36.0851 58.2262 36.958C55.2461 37.8308 51.9169 37.8059 48.9244 36.7709C46.9792 36.0976 45.3957 35.0128 44.0615 33.4791C41.1313 30.125 40.2709 25.5115 41.0066 21.1474C41.7423 16.7833 44.9468 12.868 49.3109 11.4715C51.8421 10.661 54.473 10.5613 57.0292 11.1847C59.0741 11.696 60.8072 12.7808 62.1913 14.3643C63.7748 16.1723 64.5354 18.4915 64.7225 20.8731C64.7599 21.3469 64.8098 21.7584 64.6851 22.2447C64.6352 22.4192 64.1988 22.3444 64.0367 22.3444H56.1563H55.4331H47.3408L47.3782 23.6412C47.4281 25.2995 47.9393 26.7958 48.6999 28.2671C49.7847 30.3744 51.5553 31.9579 53.8995 32.6687L53.8745 32.6562ZM47.4156 20.1623H58.3135C58.2511 18.292 57.8646 16.4466 56.8421 14.888C55.8197 13.3294 54.2611 12.7184 52.4905 12.9803C49.1239 13.6411 47.7274 16.8955 47.4032 20.1623H47.4156Z" fill="#173901"/>
<path d="M33.7009 36.6835C33.0151 36.4216 32.3667 35.9478 31.8555 35.4366C30.5338 34.1398 30.2969 32.0949 30.2969 30.2371V18.0051V6.6833C30.2969 5.27431 29.848 3.65336 28.7383 2.89275L28.7757 1.90771C31.444 1.38401 33.9752 0.835382 36.5438 0.0249023C36.9304 0.299218 37.0675 0.673286 37.0675 1.17204V30.8979C37.08 31.8082 37.292 32.681 37.7159 33.4166C38.489 34.7758 40.9204 34.9004 42.6037 34.7383C42.7533 35.0875 42.8656 35.474 42.8905 35.8855C40.3718 37.4067 36.3817 37.7434 33.7134 36.696L33.7009 36.6835Z" fill="#173901"/>
</svg>
