<svg width="32" height="32" viewBox="0 0 32 32" fill="none" xmlns="http://www.w3.org/2000/svg">
<path d="M21.6683 10.328C20.9311 9.58732 20.0531 9.00001 19.0854 8.60033C18.1178 8.20065 17.0799 7.99659 16.0322 8.00004C11.6422 8.00004 8.06432 11.56 8.06432 15.928C8.06432 17.328 8.43417 18.688 9.12563 19.888L8 24L12.2211 22.896C13.3869 23.528 14.6975 23.864 16.0322 23.864C20.4221 23.864 24 20.304 24 15.936C24 13.816 23.1719 11.824 21.6683 10.328ZM16.0322 22.52C14.8422 22.52 13.6764 22.2 12.6553 21.6L12.4141 21.456L9.90553 22.112L10.5729 19.68L10.4121 19.432C9.75079 18.3817 9.39974 17.1674 9.39899 15.928C9.39899 12.296 12.3739 9.33604 16.0241 9.33604C17.793 9.33604 19.4573 10.024 20.7035 11.272C21.3207 11.8831 21.8098 12.6101 22.1424 13.4107C22.475 14.2113 22.6446 15.0697 22.6412 15.936C22.6573 19.568 19.6824 22.52 16.0322 22.52ZM19.6663 17.592C19.4653 17.496 18.4844 17.016 18.3075 16.944C18.1226 16.88 17.994 16.848 17.8573 17.04C17.7206 17.24 17.3427 17.688 17.2302 17.816C17.1176 17.952 16.997 17.968 16.796 17.864C16.595 17.768 15.9518 17.552 15.196 16.88C14.601 16.352 14.207 15.704 14.0864 15.504C13.9739 15.304 14.0704 15.2 14.1749 15.096C14.2633 15.008 14.3759 14.864 14.4724 14.752C14.5688 14.64 14.609 14.552 14.6734 14.424C14.7377 14.288 14.7055 14.176 14.6573 14.08C14.609 13.984 14.207 13.008 14.0462 12.608C13.8854 12.224 13.7166 12.272 13.596 12.264H13.21C13.0734 12.264 12.8643 12.312 12.6794 12.512C12.5025 12.712 11.9879 13.192 11.9879 14.168C11.9879 15.144 12.7035 16.088 12.8 16.216C12.8965 16.352 14.207 18.352 16.201 19.208C16.6754 19.416 17.0452 19.536 17.3347 19.624C17.809 19.776 18.2432 19.752 18.5889 19.704C18.9749 19.648 19.7709 19.224 19.9317 18.76C20.1005 18.296 20.1005 17.904 20.0442 17.816C19.9879 17.728 19.8673 17.688 19.6663 17.592Z" fill="#A8A29E"/>
</svg>
